<svg width="17" height="17" fill="none" xmlns="http://www.w3.org/2000/svg"><g filter="url(#filter0_d)"><path d="M16.622 14.774l-3.504-3.504a6.997 6.997 0 001.267-4.077c0-.974-.19-1.905-.567-2.794A7.189 7.189 0 0012.285 2.1 7.19 7.19 0 009.987.568 7.068 7.068 0 007.192.001a7.05 7.05 0 00-2.794.567A7.19 7.19 0 002.1 2.1 7.19 7.19 0 00.567 4.4 7.067 7.067 0 000 7.192c0 .974.189 1.905.567 2.794a7.188 7.188 0 001.533 2.3 7.192 7.192 0 002.298 1.533 7.07 7.07 0 002.794.566 6.997 6.997 0 004.077-1.266l3.504 3.494c.245.258.551.388.92.388.354 0 .66-.13.919-.389.259-.258.388-.565.388-.919 0-.36-.126-.667-.378-.92zm-6.196-4.347c-.896.895-1.973 1.343-3.234 1.343-1.26 0-2.337-.448-3.233-1.343-.896-.896-1.344-1.974-1.344-3.234S3.063 4.855 3.96 3.96c.896-.896 1.973-1.344 3.233-1.344s2.338.448 3.234 1.344c.896.895 1.344 1.973 1.344 3.233s-.448 2.338-1.344 3.234z" fill="#fff"/></g><defs><filter id="filter0_d" x="-4" y=".001" width="25" height="25" filterUnits="userSpaceOnUse" color-interpolation-filters="sRGB"><feFlood flood-opacity="0" result="BackgroundImageFix"/><feColorMatrix in="SourceAlpha" values="0 0 0 0 0 0 0 0 0 0 0 0 0 0 0 0 0 0 127 0"/><feOffset dy="4"/><feGaussianBlur stdDeviation="2"/><feColorMatrix values="0 0 0 0 0 0 0 0 0 0 0 0 0 0 0 0 0 0 0.25 0"/><feBlend in2="BackgroundImageFix" result="effect1_dropShadow"/><feBlend in="SourceGraphic" in2="effect1_dropShadow" result="shape"/></filter></defs></svg>